<?xml version="1.0" standalone="no"?>
<!DOCTYPE svg PUBLIC "-//W3C//DTD SVG 20010904//EN"
 "http://www.w3.org/TR/2001/REC-SVG-20010904/DTD/svg10.dtd">
<svg version="1.0" xmlns="http://www.w3.org/2000/svg"
 width="512.000000pt" height="512.000000pt" viewBox="0 0 512.000000 512.000000"
 preserveAspectRatio="xMidYMid meet">
<metadata>
Created by potrace 1.16, written by Peter Selinger 2001-2019
</metadata>
<g transform="translate(0.000000,512.000000) scale(0.100000,-0.100000)"
fill="#000000" stroke="none">
<path d="M16 5095 c-9 -13 -16 -37 -16 -52 l1 -28 30 35 c17 19 35 43 40 53
16 29 -35 22 -55 -8z"/>
<path d="M192 5018 c-176 -182 -192 -202 -192 -228 0 -22 6 -18 52 35 29 33
104 113 167 178 89 91 110 117 93 117 -14 0 -55 -35 -120 -102z"/>
<path d="M361 4983 c-193 -185 -361 -377 -361 -412 l1 -26 22 30 c98 133 276
323 437 468 64 58 80 77 64 77 -13 0 -72 -49 -163 -137z"/>
<path d="M725 5094 c-16 -14 -73 -60 -125 -103 -114 -93 -353 -343 -442 -461
-143 -190 -159 -218 -156 -256 3 -35 4 -33 84 88 45 68 112 161 150 208 99
124 301 328 439 443 66 55 122 101 124 103 2 2 -7 4 -20 4 -13 0 -37 -12 -54
-26z"/>
<path d="M946 5056 c-126 -91 -212 -166 -363 -318 -237 -239 -399 -461 -538
-738 -43 -86 -45 -93 -45 -177 l1 -88 34 79 c59 135 165 337 204 390 21 28 67
94 103 146 180 261 403 478 710 692 l111 78 -64 0 c-63 0 -66 -2 -153 -64z"/>
<path d="M1308 5080 c-155 -105 -322 -243 -358 -294 -11 -17 -8 -16 20 6 89
69 264 190 345 238 50 29 104 61 120 71 l30 19 -50 -1 c-41 0 -60 -7 -107 -39z"/>
<path d="M1670 5067 c-344 -156 -591 -328 -829 -577 -71 -73 -204 -226 -220
-250 -8 -14 -32 -45 -53 -70 -34 -42 -142 -203 -247 -370 -35 -55 -99 -240
-83 -240 3 0 -4 -10 -16 -22 -11 -13 -23 -35 -26 -50 -6 -35 -27 -63 -46 -63
-16 0 -44 -122 -54 -235 l-6 -65 21 55 c11 30 21 64 24 75 2 11 4 22 5 25 1 3
1 13 0 24 -1 10 3 15 8 12 6 -3 8 2 6 11 -6 27 11 78 25 78 15 0 80 168 83
213 1 6 5 12 10 12 4 0 7 3 6 8 -4 12 29 65 67 107 31 35 97 129 160 231 40
65 109 160 155 214 25 30 53 65 62 78 43 64 301 308 392 372 32 22 90 68 129
102 137 118 287 201 560 309 l172 68 -95 0 c-93 0 -98 -1 -210 -52z"/>
<path d="M3245 5094 c238 -47 456 -114 660 -203 144 -64 173 -71 100 -25 -186
116 -642 256 -822 253 -55 -1 -52 -2 62 -25z"/>
<path d="M3791 5116 c2 -2 47 -22 99 -44 210 -88 624 -299 734 -375 120 -81
317 -281 429 -436 65 -89 67 -90 67 -53 0 41 -136 223 -312 416 -126 139 -128
140 -167 137 -50 -3 -119 26 -246 105 -110 68 -333 184 -435 227 -44 18 -83
27 -119 27 -30 0 -52 -2 -50 -4z"/>
<path d="M4231 5116 c2 -1 60 -39 129 -82 69 -43 160 -106 202 -141 111 -89
85 -54 -33 46 -149 126 -231 181 -270 181 -18 0 -30 -2 -28 -4z"/>
<path d="M4500 5107 c8 -7 49 -40 90 -73 142 -113 407 -400 512 -554 l17 -25
0 31 c1 20 -12 48 -39 84 -159 213 -511 550 -574 550 -17 0 -18 -2 -6 -13z"/>
<path d="M4725 5078 c82 -68 272 -258 333 -331 53 -64 57 -67 60 -42 3 21 -16
46 -100 137 -130 141 -289 278 -320 278 -20 0 -16 -6 27 -42z"/>
<path d="M4995 5038 c43 -46 89 -94 102 -108 l23 -25 0 34 c0 28 -12 45 -72
107 -57 60 -77 74 -101 74 -30 0 -29 -2 48 -82z"/>
<path d="M3158 5023 c7 -3 16 -2 19 1 4 3 -2 6 -13 5 -11 0 -14 -3 -6 -6z"/>
<path d="M3269 4994 c208 -61 486 -188 569 -260 22 -19 49 -34 59 -34 26 0
151 -61 236 -116 141 -91 385 -312 493 -446 133 -166 265 -401 359 -642 71
-181 95 -289 50 -230 -8 11 -1 -22 16 -78 16 -53 38 -129 48 -170 l19 -73 1
136 c1 142 -1 153 -66 364 -60 198 -166 409 -297 590 -126 176 -222 277 -376
400 -41 33 -84 68 -94 77 -21 19 -50 39 -161 110 -38 25 -110 71 -160 103 -96
62 -164 95 -365 173 -123 48 -175 65 -315 103 -102 27 -114 22 -16 -7z"/>
<path d="M2450 4919 c-146 -6 -163 -9 -320 -45 -284 -67 -615 -224 -899 -429
-46 -33 -89 -60 -95 -60 -6 0 -12 -15 -14 -32 -4 -37 3 -41 29 -17 10 9 23 14
30 12 6 -2 -33 -42 -87 -88 -78 -68 -114 -109 -180 -205 -90 -131 -117 -175
-112 -180 2 -2 29 33 61 78 31 45 67 93 78 107 l21 25 -20 -35 c-36 -64 -152
-253 -163 -266 -5 -6 -51 -95 -102 -196 -138 -273 -190 -435 -247 -766 -17
-96 -35 -181 -41 -188 -7 -9 -7 -30 -1 -66 6 -29 8 -69 6 -88 l-3 -35 10 35
c6 19 14 58 18 85 4 28 12 60 19 72 7 12 12 40 12 62 0 22 4 42 9 45 4 3 11
29 13 57 3 28 11 55 19 60 18 11 38 103 32 148 -6 40 44 239 79 319 11 26 35
84 53 128 49 120 129 274 168 326 19 25 58 92 86 149 55 111 202 316 241 336
12 6 68 56 124 111 56 55 119 109 141 120 50 26 114 46 122 38 4 -3 13 0 21 7
13 10 14 9 7 -2 -13 -22 11 -5 85 60 100 87 176 134 275 169 106 37 381 103
395 95 31 -19 -22 -66 -140 -125 -36 -18 -84 -51 -107 -74 -23 -23 -101 -80
-175 -126 -345 -218 -594 -425 -716 -595 -23 -33 -80 -112 -125 -175 -108
-149 -160 -230 -163 -255 -1 -11 -5 -33 -10 -50 -6 -26 3 -19 73 50 44 44 93
103 108 130 16 28 61 93 100 145 38 52 91 124 117 160 59 83 191 210 343 331
201 160 357 257 544 338 81 35 105 50 94 57 -23 14 -1 57 60 118 78 79 90 81
392 81 287 0 375 -11 600 -76 239 -68 596 -232 776 -356 74 -51 294 -249 368
-331 38 -42 81 -90 96 -107 15 -16 8 -3 -14 29 -28 40 -38 63 -31 70 6 6 19 2
37 -15 l27 -24 -21 30 c-30 43 -197 203 -268 257 -65 49 -321 215 -374 242
-17 9 -62 26 -99 37 -37 12 -105 39 -152 61 -374 175 -758 247 -1210 227z"/>
<path d="M724 4638 c-220 -214 -316 -344 -445 -603 -203 -405 -279 -638 -279
-855 0 -107 13 -127 24 -38 4 29 18 103 31 163 13 61 26 133 30 160 3 28 11
68 17 90 6 22 12 45 13 50 9 41 46 126 122 281 48 98 101 209 116 245 15 36
51 102 80 145 54 83 310 354 334 354 7 0 13 3 13 8 0 4 25 40 55 80 29 39 52
72 50 72 -2 0 -75 -69 -161 -152z"/>
<path d="M2980 4770 c-35 -7 -34 -7 12 -9 84 -2 272 -39 383 -76 234 -76 489
-228 730 -435 72 -62 139 -120 149 -129 11 -9 7 1 -10 24 -33 46 -45 56 -56
49 -5 -3 -12 4 -16 14 -7 21 -122 116 -282 235 -52 38 -97 73 -100 77 -22 27
-148 97 -265 145 -118 49 -196 72 -329 96 -112 20 -156 22 -216 9z"/>
<path d="M4230 4752 c80 -55 241 -193 345 -297 207 -206 365 -417 501 -670 41
-76 44 -78 44 -45 0 63 -183 363 -339 557 -174 216 -478 474 -555 472 -20 0
-19 -1 4 -17z"/>
<path d="M3258 4613 c7 -3 16 -2 19 1 4 3 -2 6 -13 5 -11 0 -14 -3 -6 -6z"/>
<path d="M3291 4606 c2 -2 36 -16 74 -31 503 -197 931 -622 1098 -1091 14 -38
57 -146 97 -240 39 -93 87 -221 105 -284 28 -96 34 -109 37 -80 1 19 -1 60 -5
90 -12 73 -11 72 -25 97 -27 49 -93 245 -88 260 12 31 -187 387 -318 569 -127
176 -252 316 -279 311 -7 -1 -11 4 -9 11 1 6 -2 11 -6 10 -5 -2 -24 12 -44 31
-75 70 -218 163 -355 231 -149 74 -307 139 -282 116z"/>
<path d="M2367 4565 c-55 -14 -106 -30 -115 -35 -15 -10 -14 -10 3 -6 110 27
150 36 213 46 40 7 79 10 86 7 7 -3 16 -19 19 -36 l7 -31 137 0 c278 0 497
-54 776 -189 218 -107 367 -226 522 -419 228 -284 383 -575 466 -876 37 -135
37 -87 -1 68 -26 110 -60 200 -132 356 -37 79 -149 262 -234 380 -130 182
-330 372 -489 465 -77 45 -243 125 -313 151 -172 65 -501 125 -762 139 -68 4
-104 0 -183 -20z"/>
<path d="M2190 4510 c-18 -12 -2 -12 25 0 13 6 15 9 5 9 -8 0 -22 -4 -30 -9z"/>
<path d="M2456 4469 c-51 -12 -88 -25 -284 -98 -189 -70 -398 -174 -461 -230
l-45 -38 110 53 c144 70 594 220 705 236 91 12 109 20 109 49 0 11 6 19 13 20
6 1 1 5 -13 9 -33 11 -86 10 -134 -1z"/>
<path d="M4740 4464 c8 -10 34 -41 57 -67 63 -71 148 -187 240 -325 67 -99 83
-119 83 -97 0 64 -288 453 -364 492 -30 16 -31 16 -16 -3z"/>
<path d="M2895 4415 c343 -65 668 -233 919 -475 278 -268 418 -513 521 -915
18 -71 37 -128 41 -127 12 6 22 -21 45 -119 41 -179 36 -453 -12 -679 -21 -97
-65 -222 -81 -228 -4 -2 -6 -7 -3 -12 6 -10 -69 -186 -89 -209 -7 -9 -19 -27
-26 -41 -12 -23 -12 -24 3 -11 29 24 19 -6 -20 -61 -30 -42 -38 -61 -38 -97 0
-41 -2 -46 -23 -46 -23 -1 -88 -67 -187 -190 -51 -64 -66 -76 -88 -71 -11 3
-43 -20 -91 -64 -41 -38 -107 -93 -148 -123 -132 -98 -376 -229 -518 -279
-145 -50 -446 -74 -609 -47 -163 27 -273 50 -345 75 -220 74 -472 224 -684
409 -68 59 -125 105 -128 102 -11 -10 267 -263 350 -319 294 -196 690 -319
1036 -320 132 -1 161 2 285 23 111 20 211 59 436 170 264 132 345 183 496 312
153 132 222 221 236 307 3 19 41 109 85 200 44 91 87 188 96 215 8 28 31 100
50 161 91 287 100 552 30 894 -51 250 -87 353 -201 570 -85 163 -130 231 -250
377 -199 242 -438 422 -688 517 -129 49 -347 107 -419 112 l-61 4 80 -15z
m1220 -3141 c-69 -100 -307 -308 -427 -372 -40 -21 -41 -22 -18 -2 14 12 42
36 62 55 20 19 63 54 95 77 70 52 95 76 118 116 22 37 195 195 204 186 2 -2
-13 -29 -34 -60z"/>
<path d="M3010 4262 c154 -59 368 -185 550 -324 l65 -50 -46 44 c-166 155
-461 326 -609 352 -20 4 -3 -6 40 -22z"/>
<path d="M2510 4212 c-175 -8 -424 -90 -605 -199 -81 -49 -210 -151 -265 -209
-51 -54 -49 -53 80 34 346 236 773 319 1122 218 43 -13 78 -22 78 -20 0 9 -66
35 -141 55 -69 19 -111 23 -234 23 -91 1 -179 -5 -222 -13 -52 -10 -81 -11
-105 -4 l-33 10 50 22 c204 91 536 66 810 -59 146 -67 369 -247 475 -385 24
-31 45 -53 49 -50 3 3 1 9 -5 13 -12 8 -41 50 -74 107 -22 38 -19 36 44 -25
79 -76 128 -144 183 -255 82 -163 117 -285 140 -491 12 -105 13 -142 3 -188
-6 -31 -15 -56 -19 -56 -5 0 -6 -31 -3 -69 6 -89 -20 -247 -62 -373 -18 -54
-29 -99 -25 -100 14 -5 -78 -131 -175 -240 -53 -59 -135 -136 -183 -172 -73
-55 -105 -72 -186 -98 l-98 -31 21 -20 c20 -18 23 -18 53 -3 18 9 64 25 103
36 86 25 188 103 314 238 89 95 131 159 155 237 9 28 20 58 25 67 12 21 67
313 75 398 4 36 11 83 17 105 15 56 12 267 -6 377 -30 182 -88 342 -169 463
-52 77 -236 266 -256 263 -9 -2 -15 2 -14 9 2 7 -29 38 -67 69 -39 31 -76 68
-82 83 -7 14 -32 36 -55 47 -23 12 -40 24 -37 27 3 3 -3 3 -15 0 -13 -3 -23 0
-26 9 -4 9 -24 21 -47 29 -22 7 -42 19 -45 26 -7 17 -109 48 -241 72 -110 21
-206 28 -302 23z"/>
<path d="M1580 4118 c-25 -22 -38 -36 -29 -32 24 13 82 64 78 68 -2 2 -24 -14
-49 -36z"/>
<path d="M1810 4085 c-25 -13 -56 -34 -70 -46 l-25 -21 25 14 c14 8 46 27 73
42 26 15 47 30 47 32 0 6 0 6 -50 -21z"/>
<path d="M3515 4090 c10 -11 20 -20 23 -20 3 0 -3 9 -13 20 -10 11 -20 20 -23
20 -3 0 3 -9 13 -20z"/>
<path d="M3650 3970 c266 -265 464 -610 550 -961 17 -68 37 -147 46 -176 21
-73 36 -263 29 -358 -14 -178 -74 -414 -137 -540 -20 -38 -26 -61 -19 -63 7
-2 0 -18 -17 -40 -16 -21 -50 -74 -77 -119 -56 -94 -218 -288 -300 -358 -41
-35 -61 -46 -77 -42 -15 4 -33 -5 -65 -33 -120 -105 -346 -236 -390 -225 -24
6 -186 -50 -243 -83 -45 -26 -145 -52 -240 -61 -126 -13 -328 17 -370 54 -8 7
-51 23 -95 34 -83 21 -223 74 -310 118 -74 37 -344 210 -386 247 -19 17 0 -4
42 -46 178 -177 508 -345 800 -408 397 -85 894 30 1191 276 26 22 77 55 113
73 101 52 167 123 328 350 98 138 125 194 202 428 60 182 70 247 69 458 0 249
-21 371 -112 650 -41 124 -139 341 -194 429 -70 112 -231 317 -295 376 -125
115 -149 126 -43 20z"/>
<path d="M3210 4055 c0 -8 82 -47 87 -42 3 3 -4 10 -15 16 -30 16 -72 31 -72
26z"/>
<path d="M4364 4027 c17 -15 41 -39 53 -55 l23 -27 -12 30 c-15 35 -43 65 -61
65 -7 0 -17 3 -23 8 -5 4 4 -5 20 -21z"/>
<path d="M1410 3963 c-45 -42 -91 -91 -102 -108 -12 -16 27 17 86 75 58 57
106 106 106 107 0 9 -15 -4 -90 -74z"/>
<path d="M2989 3999 c71 -33 71 -32 71 -20 0 12 -66 42 -103 46 -25 3 -18 -2
32 -26z"/>
<path d="M2510 4008 c219 -18 362 -71 525 -195 195 -147 307 -283 373 -451 60
-153 67 -191 67 -377 -1 -159 -3 -176 -29 -255 -15 -47 -48 -123 -73 -170 -47
-89 -142 -224 -150 -216 -3 3 -31 -12 -62 -33 -105 -71 -216 -130 -296 -156
-70 -24 -92 -27 -180 -23 -91 3 -108 7 -171 37 -280 138 -347 567 -105 668 37
16 100 20 141 10 15 -4 11 0 -10 9 -72 33 -208 -20 -255 -100 -34 -59 -58
-174 -50 -245 8 -69 32 -148 49 -158 7 -5 19 -18 28 -31 8 -12 33 -42 55 -65
22 -23 45 -52 51 -64 6 -11 47 -41 92 -66 l80 -45 117 8 c65 5 136 14 158 21
79 22 202 90 305 169 58 43 108 80 113 80 23 1 0 -42 -45 -86 -102 -98 -194
-153 -331 -200 -105 -36 -165 -39 -297 -15 -190 35 -281 92 -353 222 -49 89
-67 158 -67 259 0 148 49 261 137 319 54 36 95 45 165 39 61 -6 41 9 -24 18
-100 14 -201 -53 -260 -173 -27 -56 -32 -77 -36 -166 -3 -85 -1 -112 17 -164
12 -34 21 -68 21 -74 0 -23 -29 13 -57 69 -24 49 -27 66 -26 151 1 138 27 212
101 293 50 55 44 57 -19 6 -60 -49 -109 -174 -109 -278 0 -104 56 -257 104
-282 26 -14 43 -35 61 -74 21 -46 122 -133 189 -164 49 -21 68 -25 105 -19 39
6 50 3 77 -17 27 -21 43 -24 115 -25 55 -1 103 5 137 16 28 10 59 15 67 11 11
-4 14 -2 9 6 -5 7 0 9 14 6 12 -4 22 -2 22 3 0 4 7 5 17 2 12 -5 14 -3 8 7 -6
10 -4 12 8 7 9 -3 17 -3 19 1 2 4 35 28 73 53 159 104 293 223 329 289 68 128
89 174 107 245 25 95 35 277 20 355 l-10 55 4 -78 c13 -260 -65 -490 -217
-640 -38 -38 -72 -66 -75 -63 -3 3 35 86 85 185 51 98 98 205 107 237 18 73
33 231 37 387 2 66 6 121 11 124 4 2 7 9 7 14 0 6 -5 7 -12 3 -8 -5 -9 -2 -5
10 6 16 -45 132 -95 216 -44 72 -150 198 -250 297 -88 87 -117 109 -195 147
-170 84 -346 127 -498 125 -66 -2 -64 -2 35 -11z"/>
<path d="M2363 4003 c9 -2 23 -2 30 0 6 3 -1 5 -18 5 -16 0 -22 -2 -12 -5z"/>
<path d="M4470 3983 c0 -4 34 -48 75 -98 148 -176 255 -358 350 -595 110 -272
155 -504 155 -796 1 -121 4 -164 11 -151 6 9 7 27 4 38 -4 11 -1 26 5 34 9 11
9 57 0 197 -19 311 -50 462 -141 695 -110 280 -329 654 -374 636 -15 -5 -46 9
-69 33 -9 8 -16 12 -16 7z"/>
<path d="M1599 3943 c-13 -16 -12 -17 4 -4 9 7 17 15 17 17 0 8 -8 3 -21 -13z"/>
<path d="M1642 3862 c-95 -92 -126 -141 -47 -76 25 20 45 41 45 46 0 5 23 34
51 64 29 30 50 54 48 54 -2 0 -46 -40 -97 -88z"/>
<path d="M3124 3941 c4 -5 21 -20 39 -32 l32 -23 -20 23 c-22 25 -62 51 -51
32z"/>
<path d="M4360 3935 c0 -4 22 -35 48 -69 108 -137 202 -301 290 -506 118 -275
197 -623 231 -1015 26 -296 -38 -614 -182 -900 -99 -198 -312 -494 -433 -603
-66 -59 -75 -72 -48 -72 9 0 14 -7 12 -17 -5 -26 -256 -233 -393 -325 -140
-94 -141 -95 -93 -75 21 9 66 36 100 60 35 25 83 55 108 67 93 46 245 174 318
266 34 44 120 145 152 180 38 41 145 197 233 337 46 75 134 267 165 362 28 85
46 172 73 345 32 213 19 597 -31 884 -30 173 -130 461 -218 628 -11 21 -64
109 -118 195 -53 87 -103 168 -111 181 -7 12 -22 22 -32 22 -11 0 -31 14 -45
31 -14 17 -26 27 -26 24z"/>
<path d="M1479 3854 c-42 -44 -124 -105 -144 -108 -19 -3 -106 -94 -147 -154
-32 -46 -122 -231 -133 -272 -3 -14 7 -2 22 25 59 102 240 333 345 438 59 59
104 107 100 107 -5 0 -24 -16 -43 -36z"/>
<path d="M2363 3882 c-29 -2 -53 -7 -53 -11 0 -4 -19 -14 -42 -21 -163 -48
-445 -245 -575 -399 -54 -65 -116 -121 -99 -91 5 8 -3 2 -17 -15 -49 -58 -136
-241 -181 -380 -48 -148 -76 -257 -75 -290 0 -19 1 -18 11 3 6 12 17 22 23 22
7 0 15 7 19 15 15 41 20 3 14 -107 -9 -158 0 -393 18 -483 7 -39 37 -129 65
-200 28 -72 53 -139 56 -150 20 -68 -117 124 -156 219 -13 34 -35 90 -47 126
-13 36 -23 57 -23 48 -1 -19 17 -77 56 -178 41 -108 56 -140 65 -140 5 0 6 -5
2 -12 -4 -6 -3 -8 3 -5 10 6 146 -141 218 -236 106 -139 402 -341 616 -421
131 -48 342 -79 352 -52 6 16 -21 26 -71 26 -62 0 -234 41 -321 76 -107 43
-318 169 -414 247 -39 32 -76 62 -82 65 -20 14 -159 175 -155 181 1 2 -2 7 -7
10 -17 12 -118 308 -137 402 -66 327 -20 750 108 987 19 34 30 62 25 62 -45 0
97 209 213 315 127 116 355 235 518 271 71 15 150 41 91 30 -13 -3 -31 -1 -40
4 -9 5 -25 12 -36 15 -30 11 74 45 158 52 37 3 67 10 67 15 0 8 -22 8 -167 0z"/>
<path d="M2583 3873 c9 -2 25 -2 35 0 9 3 1 5 -18 5 -19 0 -27 -2 -17 -5z"/>
<path d="M2510 3790 c160 -12 183 -19 365 -105 152 -72 288 -192 393 -347 112
-166 151 -279 153 -437 1 -101 2 -103 11 -51 5 30 7 101 5 157 -4 94 -7 104
-35 140 -16 21 -53 83 -82 138 -29 55 -59 108 -67 117 -19 22 -34 86 -21 90
10 4 -83 90 -177 163 -34 27 -43 31 -26 13 l23 -27 -23 6 c-13 3 -28 9 -34 13
-5 4 -21 11 -35 15 -14 4 -79 32 -145 63 l-120 55 -145 3 -145 2 105 -8z"/>
<path d="M1219 3753 c-13 -16 -12 -17 4 -4 9 7 17 15 17 17 0 8 -8 3 -21 -13z"/>
<path d="M3319 3705 c174 -192 266 -351 313 -545 16 -64 22 -134 27 -285 l6
-200 9 148 c13 219 -20 411 -97 562 -68 137 -151 244 -260 337 l-62 53 64 -70z"/>
<path d="M407 3650 c-86 -137 -185 -344 -231 -485 -20 -60 -46 -123 -57 -138
-11 -16 -22 -38 -23 -50 -2 -12 -6 -33 -9 -47 -3 -14 -9 -47 -12 -73 -5 -37
-10 -47 -21 -43 -11 4 -12 2 -4 -14 5 -10 15 -22 20 -25 13 -8 13 -68 -1 -82
-8 -8 -8 -13 0 -17 6 -4 11 -23 11 -43 0 -31 2 -34 16 -22 26 22 41 61 48 129
9 85 68 327 107 438 40 113 137 337 164 382 55 88 76 140 68 169 -8 27 -11 24
-76 -79z"/>
<path d="M1513 3745 c-12 -8 -26 -28 -31 -45 l-11 -30 25 16 c28 19 31 26 7
18 -11 -3 -5 5 12 20 32 28 31 44 -2 21z"/>
<path d="M2623 3707 c1 -5 34 -19 72 -31 221 -71 396 -220 499 -427 46 -93 55
-106 58 -82 l4 28 13 -30 c19 -45 40 -157 47 -248 9 -110 -9 -213 -51 -305
-39 -84 -40 -86 -23 -76 7 4 2 -7 -11 -24 -23 -33 -121 -115 -201 -169 -62
-42 -238 -129 -277 -137 -39 -9 -142 16 -192 46 l-36 21 25 -28 c34 -37 116
-75 166 -75 147 0 438 173 529 315 39 61 81 192 96 300 19 140 -6 279 -79 438
-72 154 -257 329 -444 417 -35 17 -68 30 -75 30 -6 0 -18 8 -25 19 -13 19
-101 35 -95 18z"/>
<path d="M3717 3659 c84 -121 181 -358 220 -534 42 -186 46 -227 39 -387 -4
-84 -7 -179 -6 -210 1 -31 -4 -85 -10 -120 -14 -75 -58 -229 -71 -243 -5 -5
-9 -17 -9 -26 0 -23 -74 -116 -99 -124 -11 -3 -43 -36 -72 -73 -114 -146 -278
-278 -449 -359 -41 -20 -145 -54 -230 -76 -151 -39 -160 -41 -325 -41 -154 -1
-181 2 -290 28 -66 15 -128 33 -138 38 -10 5 -35 10 -55 11 -62 4 -205 90
-292 178 -42 41 -84 93 -94 114 -11 22 -35 64 -54 94 -84 132 -133 278 -152
457 -9 88 -9 88 -5 -34 5 -139 26 -250 60 -329 80 -180 271 -391 437 -481 74
-41 112 -55 165 -63 37 -5 79 -13 93 -18 132 -49 442 -58 641 -21 271 52 520
215 703 460 38 52 101 126 138 165 94 96 106 134 133 425 32 338 13 530 -77
789 -41 117 -112 281 -127 291 -4 3 -24 30 -44 61 -19 31 -41 60 -48 64 -7 5
2 -12 18 -36z m-1453 -2135 c9 -3 16 -12 16 -20 0 -17 -12 -18 -28 -2 -22 22
-16 33 12 22z"/>
<path d="M2278 3650 c-112 -38 -247 -106 -323 -163 -62 -46 -161 -140 -254
-239 -29 -32 -57 -58 -61 -58 -13 0 -90 -157 -90 -184 0 -41 13 -31 47 37 63
127 233 318 387 434 176 132 316 188 473 187 51 0 87 4 80 8 -7 4 -48 8 -92 8
-62 0 -99 -7 -167 -30z"/>
<path d="M1767 3647 c-61 -40 -226 -220 -300 -328 -113 -163 -156 -247 -203
-397 -51 -166 -76 -330 -54 -357 11 -13 15 -13 22 -3 6 8 7 -4 4 -32 -9 -76
-9 -373 0 -415 8 -34 10 -24 16 75 3 63 8 216 11 340 4 189 9 245 30 350 53
259 148 419 406 683 53 53 93 97 91 96 -3 0 -13 -6 -23 -12z"/>
<path d="M1523 3529 c-77 -96 -62 -105 18 -11 38 46 60 79 52 79 -8 0 -40 -31
-70 -68z"/>
<path d="M2770 3567 c0 -3 30 -22 67 -43 105 -61 211 -173 260 -274 123 -254
89 -506 -91 -686 -97 -96 -165 -129 -266 -128 -90 1 -150 25 -204 80 -20 20
-40 53 -45 73 -9 35 -2 105 13 129 4 7 3 12 -2 12 -15 0 -32 -49 -32 -96 0
-61 19 -102 70 -148 64 -57 121 -79 210 -80 106 -1 169 31 280 143 74 75 89
96 114 161 38 101 55 262 38 363 -27 154 -137 316 -287 422 -58 41 -125 80
-125 72z"/>
<path d="M3927 3435 c30 -77 59 -141 64 -143 16 -7 50 -138 75 -292 71 -439
23 -798 -149 -1124 -33 -62 -68 -105 -162 -201 -209 -211 -447 -346 -739 -415
-171 -41 -346 -35 -565 21 -128 32 -346 133 -458 211 -89 63 -257 214 -303
272 -88 116 -170 284 -215 442 -16 57 -23 73 -19 44 9 -68 70 -247 111 -320
82 -150 210 -292 393 -437 95 -75 332 -194 480 -242 142 -46 216 -58 397 -67
127 -6 129 -6 238 29 249 80 262 86 421 196 150 103 298 230 354 305 54 72
165 297 191 386 73 255 97 560 64 822 -25 201 -56 306 -148 498 -81 168 -94
175 -30 15z"/>
<path d="M2290 3553 c-50 -8 -126 -37 -202 -75 -43 -21 -78 -35 -78 -31 0 5
-10 -3 -21 -17 -11 -14 -17 -18 -13 -10 15 29 -99 -76 -150 -137 -28 -34 -76
-106 -106 -159 -30 -54 -75 -119 -99 -144 -40 -41 -47 -57 -83 -180 -27 -96
-39 -161 -43 -225 -3 -74 -3 -80 4 -35 28 185 139 436 198 452 14 4 9 -13 -24
-81 -52 -104 -93 -254 -93 -338 0 -88 16 -87 23 1 3 41 12 85 20 98 8 12 20
52 27 88 15 81 46 174 73 219 11 18 21 45 23 60 4 46 40 114 94 180 66 78 247
226 318 258 78 37 200 56 305 48 174 -13 289 -66 417 -195 128 -127 180 -243
180 -406 0 -153 -96 -330 -219 -402 -38 -22 -58 -27 -116 -27 -63 0 -77 4
-135 38 -64 37 -65 37 -30 6 51 -45 96 -62 170 -62 81 -1 150 32 225 107 122
121 160 270 120 461 -34 159 -147 316 -288 400 -34 20 -69 41 -77 46 -85 53
-292 84 -420 62z"/>
<path d="M3633 3454 c50 -99 75 -180 92 -292 29 -191 13 -361 -45 -486 -15
-34 -31 -82 -35 -109 -21 -156 -132 -361 -249 -463 -45 -40 -193 -134 -217
-138 -31 -5 -59 -18 -59 -26 0 -12 40 -24 75 -21 51 3 159 78 247 170 113 118
170 224 213 396 12 50 39 131 58 180 19 50 38 111 42 138 7 47 25 66 25 25 0
-12 2 -19 4 -17 5 4 -10 241 -18 304 -19 140 -101 354 -153 396 -8 8 1 -18 20
-57z"/>
<path d="M870 3490 c-6 -11 -8 -20 -6 -20 3 0 10 9 16 20 6 11 8 20 6 20 -3 0
-10 -9 -16 -20z"/>
<path d="M1036 3478 c-9 -12 -16 -18 -16 -13 0 5 -15 -5 -32 -23 -18 -17 -36
-31 -40 -32 -5 0 -9 -3 -9 -7 -1 -5 -16 -31 -35 -60 -18 -28 -42 -71 -53 -95
l-21 -43 26 30 c15 17 41 46 58 65 44 49 89 108 120 158 27 44 29 59 2 20z"/>
<path d="M2531 3461 c67 -26 191 -115 132 -95 -10 4 3 -7 28 -25 179 -121 285
-293 283 -457 -2 -141 -101 -293 -212 -324 -57 -16 -76 -33 -27 -25 110 19
206 115 246 248 33 112 15 256 -48 381 -52 102 -237 253 -360 295 -76 26 -106
27 -42 2z"/>
<path d="M2271 3450 c-24 -5 -45 -11 -47 -12 -1 -2 53 -3 121 -3 71 0 120 4
115 9 -13 13 -138 17 -189 6z"/>
<path d="M1324 3298 c-38 -57 -72 -111 -77 -122 -4 -10 -14 -34 -23 -52 -9
-18 -13 -38 -9 -43 3 -6 1 -11 -5 -11 -7 0 -9 -8 -5 -21 5 -16 4 -19 -5 -14
-9 6 -11 4 -5 -5 5 -8 -1 -30 -13 -54 -33 -65 -72 -208 -78 -288 -3 -40 -5
-149 -5 -243 0 -193 12 -269 66 -432 37 -113 149 -350 186 -393 15 -19 14 -13
-6 20 -43 74 -130 260 -158 337 -33 92 -57 227 -57 326 0 44 -4 77 -10 77 -6
0 -9 41 -9 105 1 58 5 105 9 105 4 0 10 24 14 53 30 225 113 474 221 658 33
56 50 99 40 99 -1 0 -34 -46 -71 -102z"/>
<path d="M2235 3321 c-83 -20 -261 -99 -312 -138 -21 -16 -56 -47 -80 -70 -23
-24 -47 -43 -53 -43 -5 0 -10 -5 -10 -11 0 -8 5 -8 15 1 8 7 22 10 30 6 12 -4
6 -24 -35 -104 -135 -262 -123 -639 26 -899 75 -130 216 -297 308 -364 42 -31
99 -42 76 -14 -7 8 -35 28 -64 44 -28 17 -69 49 -91 72 -39 42 -25 37 25 -9
24 -23 75 -54 55 -35 -40 39 -96 85 -107 87 -21 3 -39 17 -33 26 3 4 -2 11
-11 14 -8 3 -13 10 -10 15 3 5 -2 15 -11 22 -9 8 -38 47 -64 87 -154 235 -181
509 -88 900 23 98 75 187 144 251 38 35 85 54 85 35 0 -3 -20 -31 -45 -63 -73
-93 -52 -87 45 13 99 102 158 137 266 157 100 19 233 -5 337 -59 88 -45 197
-160 226 -236 45 -122 35 -227 -31 -324 -37 -53 -64 -71 -125 -82 l-48 -8 43
-1 c52 -1 85 15 134 66 59 62 82 117 87 206 3 72 1 83 -32 152 -41 85 -101
155 -196 224 -129 94 -291 123 -456 82z"/>
<path d="M1026 3248 c-10 -24 -30 -90 -45 -148 -15 -58 -31 -114 -34 -125 -4
-11 4 5 19 35 14 30 28 70 30 87 2 18 15 67 29 110 27 86 27 106 1 41z"/>
<path d="M893 3218 c-51 -64 -135 -331 -158 -505 -4 -29 -11 -53 -16 -53 -23
0 -1 -293 40 -518 28 -151 76 -340 91 -355 10 -11 -16 117 -29 141 -17 33 -51
200 -72 357 -25 189 -22 348 11 490 23 103 91 314 126 394 24 53 27 74 7 49z"/>
<path d="M2318 3223 c7 -3 16 -2 19 1 4 3 -2 6 -13 5 -11 0 -14 -3 -6 -6z"/>
<path d="M2516 3216 c64 -16 111 -44 162 -100 99 -107 149 -290 107 -394 -13
-33 -13 -35 0 -17 19 24 35 80 35 120 0 42 -43 176 -73 228 -55 93 -175 177
-252 176 -23 -1 -18 -4 21 -13z"/>
<path d="M2268 3213 c7 -3 16 -2 19 1 4 3 -2 6 -13 5 -11 0 -14 -3 -6 -6z"/>
<path d="M2190 3190 c-8 -5 -10 -10 -5 -10 6 0 17 5 25 10 8 5 11 10 5 10 -5
0 -17 -5 -25 -10z"/>
<path d="M690 3174 c0 -5 -20 -98 -44 -206 -78 -345 -90 -441 -89 -703 0 -181
4 -240 16 -276 9 -25 19 -75 22 -110 8 -72 42 -211 54 -219 5 -3 14 -23 20
-45 7 -22 19 -53 26 -70 7 -16 25 -61 40 -100 39 -106 63 -153 120 -235 29
-41 78 -118 110 -170 32 -52 81 -121 109 -152 88 -98 135 -152 148 -171 7 -9
25 -25 40 -35 125 -82 198 -133 223 -158 40 -38 94 -84 99 -84 2 0 34 -18 70
-40 194 -118 494 -237 660 -261 182 -27 389 -49 452 -49 152 0 477 62 599 114
17 7 46 19 65 26 19 8 37 17 40 22 11 15 116 56 175 68 33 7 69 20 80 30 11 9
83 59 160 111 179 120 285 205 285 227 0 9 -7 25 -15 35 -13 18 -14 17 -28
-10 -9 -17 -38 -41 -68 -58 -59 -31 -294 -208 -352 -263 -39 -38 -44 -33 -28
26 5 17 7 32 4 32 -3 0 -48 -24 -102 -54 -330 -185 -682 -269 -992 -238 -425
44 -816 189 -1152 427 -172 122 -311 266 -438 455 -24 36 -53 75 -65 88 -99
109 -286 559 -333 804 -30 157 -30 508 1 690 6 37 15 65 20 62 4 -3 8 4 8 15
0 11 5 23 11 27 6 3 9 22 6 43 -5 41 15 207 39 324 8 43 13 81 10 85 -3 3 -6
1 -6 -4z"/>
<path d="M1121 3111 c-29 -69 -26 -78 5 -12 13 30 23 56 20 58 -2 2 -13 -19
-25 -46z"/>
<path d="M2375 3150 c-156 -22 -318 -131 -377 -255 -14 -27 -29 -49 -35 -48
-28 6 -63 -169 -63 -309 0 -121 20 -223 64 -326 83 -195 179 -287 421 -405 51
-26 136 -48 260 -67 39 -6 78 -19 88 -27 11 -11 43 -18 95 -21 64 -3 100 1
202 27 259 64 385 152 543 377 150 215 195 340 201 564 3 74 2 117 0 95 -31
-309 -110 -525 -247 -671 -197 -211 -396 -316 -647 -344 -113 -12 -170 -7
-170 15 0 16 -8 18 -124 35 -138 21 -261 75 -391 172 -52 40 -85 76 -132 145
-72 107 -96 177 -114 324 -19 164 -1 394 29 375 5 -3 19 20 32 50 28 68 109
158 182 201 99 60 274 89 371 62 116 -32 215 -215 188 -347 -6 -31 -17 -63
-24 -72 -6 -9 -2 -6 9 6 42 44 39 176 -6 269 -28 58 -82 119 -133 148 -50 30
-132 40 -222 27z"/>
<path d="M2004 3077 c-86 -62 -129 -132 -164 -266 -39 -154 -36 -255 17 -511
18 -92 77 -220 138 -303 42 -58 53 -86 30 -79 -5 2 -1 -6 10 -18 10 -11 24
-19 31 -16 7 3 18 -2 25 -10 21 -25 94 -72 123 -80 14 -3 31 -15 37 -25 6 -13
21 -19 42 -19 l32 0 -41 23 c-203 117 -292 220 -357 413 -66 197 -86 335 -68
484 22 176 67 299 144 386 21 24 37 44 35 44 -1 -1 -17 -11 -34 -23z"/>
<path d="M3562 3080 c0 -14 2 -19 5 -12 2 6 2 18 0 25 -3 6 -5 1 -5 -13z"/>
<path d="M2336 3064 c-80 -19 -155 -64 -214 -128 -64 -71 -80 -107 -103 -234
-23 -129 -25 -218 -5 -225 8 -3 19 -21 25 -39 5 -18 33 -89 62 -158 53 -129
100 -205 145 -235 14 -9 23 -19 20 -22 -3 -3 -12 0 -21 7 -8 7 -15 10 -15 7 0
-2 17 -17 38 -33 28 -21 32 -22 18 -6 -24 28 -13 28 25 1 16 -11 26 -25 23
-31 -4 -7 -2 -8 4 -4 6 3 57 -16 114 -42 111 -53 231 -83 263 -65 14 8 9 12
-30 17 -214 33 -389 123 -474 246 l-25 35 30 -25 c16 -14 37 -33 48 -43 91
-90 426 -205 426 -147 0 5 -26 14 -57 20 -323 63 -494 210 -563 484 -35 137
-20 353 26 379 8 4 14 13 14 18 0 6 -5 7 -11 3 -7 -4 -6 2 2 17 61 115 200
190 354 192 63 0 89 -4 122 -21 56 -29 100 -85 122 -157 11 -33 20 -50 20 -38
2 41 -38 128 -76 165 -77 75 -173 94 -307 62z"/>
<path d="M1070 3059 c0 -5 5 -7 10 -4 6 3 10 8 10 11 0 2 -4 4 -10 4 -5 0 -10
-5 -10 -11z"/>
<path d="M1077 3023 c3 -7 6 -13 8 -13 2 0 5 6 8 13 3 8 -1 14 -8 14 -7 0 -11
-6 -8 -14z"/>
<path d="M1 3014 c0 -11 3 -14 6 -6 3 7 2 16 -1 19 -3 4 -6 -2 -5 -13z"/>
<path d="M3217 2915 c-8 -177 -46 -286 -138 -393 -68 -81 -160 -142 -212 -142
-22 0 -36 -4 -32 -10 12 -20 -72 -50 -139 -50 -119 0 -225 59 -284 158 -39 67
-39 157 1 224 15 26 37 53 48 59 11 6 18 13 15 17 -11 10 -68 -51 -87 -93 -26
-56 -25 -144 2 -198 12 -23 49 -70 82 -104 74 -77 136 -104 247 -106 69 -2 81
1 150 37 256 131 374 310 372 566 -1 147 -18 171 -25 35z"/>
<path d="M2360 2997 c-73 -21 -159 -67 -196 -103 -43 -44 -45 -68 -1 -28 60
57 161 105 257 124 91 17 182 -24 232 -105 10 -16 18 -25 18 -19 0 22 -46 79
-87 107 -34 24 -54 30 -110 33 -38 2 -88 -2 -113 -9z"/>
<path d="M1051 2978 c-16 -25 -44 -142 -60 -245 -12 -81 -15 -323 -3 -323 4 0
8 60 8 133 2 175 26 309 79 440 10 24 -8 21 -24 -5z"/>
<path d="M2500 2951 c55 -17 93 -44 121 -89 30 -48 39 -51 15 -4 -25 49 -102
103 -143 101 -12 0 -10 -3 7 -8z"/>
<path d="M4511 2904 c0 -11 3 -14 6 -6 3 7 2 16 -1 19 -3 4 -6 -2 -5 -13z"/>
<path d="M921 2894 c0 -11 3 -14 6 -6 3 7 2 16 -1 19 -3 4 -6 -2 -5 -13z"/>
<path d="M2671 2834 c0 -11 3 -14 6 -6 3 7 2 16 -1 19 -3 4 -6 -2 -5 -13z"/>
<path d="M4741 2824 c0 -11 3 -14 6 -6 3 7 2 16 -1 19 -3 4 -6 -2 -5 -13z"/>
<path d="M901 2814 c0 -11 3 -14 6 -6 3 7 2 16 -1 19 -3 4 -6 -2 -5 -13z"/>
<path d="M2425 2801 c-81 -50 -117 -120 -117 -227 1 -61 4 -75 25 -97 13 -15
36 -46 52 -69 15 -24 53 -65 84 -93 l55 -50 -45 52 c-26 29 -68 84 -95 123
-43 63 -49 78 -52 136 -5 70 6 109 45 162 34 45 64 63 125 72 l53 8 -50 1
c-33 1 -60 -5 -80 -18z"/>
<path d="M806 2768 c-4 -24 -3 -45 4 -52 7 -7 10 6 10 42 0 29 -2 52 -4 52 -2
0 -6 -19 -10 -42z"/>
<path d="M2620 2801 c0 -5 5 -13 10 -16 6 -3 10 -2 10 4 0 5 -4 13 -10 16 -5
3 -10 2 -10 -4z"/>
<path d="M2651 2794 c0 -11 3 -14 6 -6 3 7 2 16 -1 19 -3 4 -6 -2 -5 -13z"/>
<path d="M4752 2775 c0 -16 2 -22 5 -12 2 9 2 23 0 30 -3 6 -5 -1 -5 -18z"/>
<path d="M3412 2770 c0 -14 2 -19 5 -12 2 6 2 18 0 25 -3 6 -5 1 -5 -13z"/>
<path d="M892 2750 c0 -14 2 -19 5 -12 2 6 2 18 0 25 -3 6 -5 1 -5 -13z"/>
<path d="M0 2729 c0 -18 5 -25 20 -25 18 0 18 1 2 21 -9 11 -18 22 -19 24 -2
2 -3 -7 -3 -20z"/>
<path d="M2649 2723 c-13 -16 -12 -17 4 -4 9 7 17 15 17 17 0 8 -8 3 -21 -13z"/>
<path d="M4761 2716 c-1 -36 22 -167 26 -146 2 8 -3 51 -11 95 -7 44 -14 67
-15 51z"/>
<path d="M2434 2685 c-19 -47 -17 -122 5 -170 22 -49 89 -111 147 -136 24 -11
74 -22 111 -25 77 -5 64 7 -28 25 -161 33 -273 182 -226 302 19 48 12 52 -9 4z"/>
<path d="M875 2658 c-17 -123 -21 -188 -13 -278 13 -160 23 -239 32 -247 4 -4
5 9 1 29 -4 20 -8 152 -8 292 -1 141 -2 256 -3 256 -1 0 -5 -24 -9 -52z"/>
<path d="M797 2694 c-4 -4 -6 -37 -6 -73 l2 -66 8 65 c9 69 8 86 -4 74z"/>
<path d="M955 2614 c-9 -81 -1 -248 14 -289 6 -16 13 -52 17 -78 9 -79 15 -47
8 44 -5 52 -10 76 -14 64 -11 -30 -18 81 -13 213 2 61 2 112 -1 112 -2 0 -8
-30 -11 -66z"/>
<path d="M2668 2623 c7 -3 16 -2 19 1 4 3 -2 6 -13 5 -11 0 -14 -3 -6 -6z"/>
<path d="M2530 2616 c0 -2 7 -9 15 -16 13 -11 14 -10 9 4 -5 14 -24 23 -24 12z"/>
<path d="M2570 2616 c0 -2 8 -10 18 -17 15 -13 16 -12 3 4 -13 16 -21 21 -21
13z"/>
<path d="M1312 2585 c0 -16 2 -22 5 -12 2 9 2 23 0 30 -3 6 -5 -1 -5 -18z"/>
<path d="M4629 2467 c-2 -48 0 -87 4 -87 14 0 16 24 8 100 l-7 75 -5 -88z"/>
<path d="M4792 2500 c0 -14 2 -19 5 -12 2 6 2 18 0 25 -3 6 -5 1 -5 -13z"/>
<path d="M1441 2403 c1 -100 6 -93 11 15 2 39 0 72 -4 72 -4 0 -7 -39 -7 -87z"/>
<path d="M3430 2313 c0 -25 -99 -140 -168 -195 -120 -95 -225 -138 -393 -161
-74 -11 -88 -15 -64 -20 17 -4 43 -5 59 -2 16 3 59 10 95 14 67 9 162 43 236
86 22 13 44 23 49 23 20 0 133 133 164 192 18 35 30 65 27 68 -3 3 -5 1 -5 -5z"/>
<path d="M4687 2270 c-4 -30 -9 -91 -12 -135 -20 -282 -120 -583 -272 -820
-84 -131 -247 -340 -328 -420 -108 -109 -307 -240 -540 -357 -211 -106 -381
-169 -525 -192 -164 -27 -321 -38 -418 -31 -84 6 -94 9 -102 29 -7 21 -18 24
-102 31 -51 5 -109 8 -128 7 -54 -2 -250 73 -403 154 -353 189 -575 361 -747
576 -44 55 -80 97 -80 93 0 -19 155 -210 240 -295 107 -107 311 -254 505 -365
66 -37 134 -77 150 -89 64 -47 301 -129 420 -147 39 -5 106 -17 150 -27 82
-17 347 -23 430 -10 22 4 70 12 106 17 137 22 393 116 578 213 243 126 237
123 320 190 41 34 85 66 98 73 54 28 170 169 297 360 226 338 325 570 377 885
15 92 16 256 2 290 -10 23 -11 20 -16 -30z"/>
<path d="M885 2098 c3 -13 15 -63 26 -112 29 -135 168 -557 169 -514 0 3 -29
93 -65 200 -36 106 -78 250 -92 321 -15 70 -31 127 -36 127 -5 0 -6 -10 -2
-22z"/>
<path d="M3883 2048 c-35 -38 -97 -134 -108 -167 -11 -36 -232 -246 -324 -310
-104 -71 -209 -125 -316 -163 -44 -16 -64 -26 -45 -22 67 12 249 96 367 169
147 92 254 194 349 335 64 94 120 190 111 190 -2 0 -17 -15 -34 -32z"/>
<path d="M7 1973 c-15 -14 -7 -303 9 -371 72 -303 169 -536 311 -752 103 -157
145 -229 141 -242 -2 -6 -30 21 -63 60 -32 39 -62 69 -67 66 -4 -3 -5 -11 -1
-17 4 -7 7 -19 8 -27 0 -24 55 -93 107 -133 50 -40 187 -204 188 -224 0 -7 6
-13 13 -13 8 0 7 -3 -3 -10 -12 -7 16 -40 138 -160 l152 -150 82 0 83 0 -55
47 c-274 235 -476 489 -652 818 -32 61 -57 102 -56 93 5 -30 -16 -23 -39 13
-13 19 -30 43 -38 54 -15 19 -36 61 -90 180 -41 90 -55 125 -55 143 0 9 -10
37 -22 62 -22 46 -27 60 -33 95 -11 66 -14 84 -20 125 -4 25 -9 56 -11 70 -2
14 -8 50 -13 80 -14 80 -13 103 2 97 11 -4 12 4 5 46 -11 58 -12 60 -21 50z"/>
<path d="M261 1784 c0 -11 3 -14 6 -6 3 7 2 16 -1 19 -3 4 -6 -2 -5 -13z"/>
<path d="M276 1696 c6 -51 35 -171 59 -246 8 -25 37 -113 64 -197 27 -83 61
-176 75 -207 14 -31 26 -60 26 -64 0 -4 22 -50 48 -102 26 -52 60 -125 76
-162 16 -38 33 -68 37 -68 5 0 9 -5 9 -10 0 -6 9 -21 20 -32 14 -16 17 -24 8
-29 -26 -17 241 -308 442 -480 92 -79 120 -99 145 -98 l30 0 -30 22 c-51 37
-265 250 -286 284 -13 20 -18 40 -14 53 5 16 -11 41 -72 113 -311 365 -494
710 -614 1162 -18 67 -27 91 -23 61z m458 -1132 c9 -3 16 -10 16 -14 0 -12
-33 -5 -38 8 -4 14 0 15 22 6z"/>
<path d="M2233 1679 c11 -19 111 -63 128 -57 5 2 -25 20 -66 40 -61 30 -72 34
-62 17z"/>
<path d="M441 1637 c-1 -34 38 -198 50 -212 5 -5 9 -16 9 -25 1 -27 169 -349
197 -378 8 -8 20 -26 28 -41 24 -47 92 -122 322 -356 76 -78 160 -160 186
-184 78 -68 257 -195 277 -196 3 0 39 -19 80 -41 137 -75 244 -123 360 -164
93 -32 128 -40 185 -39 l70 0 -75 28 c-80 30 -201 87 -210 100 -3 4 -41 20
-85 35 -183 63 -391 183 -565 323 -105 85 -387 383 -490 517 -68 89 -130 187
-130 207 0 7 -6 20 -14 28 -16 19 -116 215 -116 227 0 5 7 0 15 -10 8 -11 15
-17 15 -13 0 11 -34 81 -53 110 -10 15 -15 27 -11 27 4 0 0 8 -9 18 -9 9 -20
29 -26 42 l-10 25 0 -28z"/>
<path d="M2405 1605 c17 -8 37 -14 45 -14 8 0 -1 7 -20 14 -46 18 -64 17 -25
0z"/>
<path d="M820 1595 c0 -5 5 -17 10 -25 5 -8 10 -10 10 -5 0 6 -5 17 -10 25 -5
8 -10 11 -10 5z"/>
<path d="M2478 1583 c7 -3 16 -2 19 1 4 3 -2 6 -13 5 -11 0 -14 -3 -6 -6z"/>
<path d="M4160 1534 c-18 -26 -28 -45 -21 -43 11 4 67 89 58 89 -2 0 -19 -21
-37 -46z"/>
<path d="M4053 1488 c-219 -233 -482 -439 -685 -537 -120 -57 -163 -73 -313
-112 -134 -34 -88 -41 63 -8 101 22 234 81 376 168 75 46 175 117 191 135 6 6
42 35 80 63 39 28 96 79 129 112 32 34 78 70 101 80 31 14 51 32 70 65 34 59
28 77 -12 34z"/>
<path d="M866 1487 c3 -10 9 -15 12 -12 3 3 0 11 -7 18 -10 9 -11 8 -5 -6z"/>
<path d="M914 1393 c32 -63 111 -191 104 -168 -5 16 -130 235 -134 235 -3 0
11 -30 30 -67z"/>
<path d="M5076 1375 c-176 -422 -437 -752 -825 -1043 -125 -93 -248 -172 -268
-172 -7 0 -13 10 -13 23 0 22 -6 20 -132 -41 -126 -61 -130 -65 -107 -77 13
-7 27 -11 31 -9 5 3 8 1 8 -4 0 -5 -21 -19 -47 -30 l-48 -20 59 -1 c53 -1 71
5 170 55 218 111 250 131 416 258 169 129 228 186 395 377 189 214 406 616
393 726 -3 24 -7 18 -32 -42z"/>
<path d="M3028 1373 c7 -3 16 -2 19 1 4 3 -2 6 -13 5 -11 0 -14 -3 -6 -6z"/>
<path d="M5 1353 c3 -10 9 -31 12 -48 9 -52 73 -229 93 -256 10 -15 25 -43 34
-63 10 -25 21 -36 35 -36 12 0 20 -3 20 -7 -5 -28 2 -42 17 -36 15 6 15 8 -2
20 -10 7 -15 13 -11 13 3 0 -7 23 -24 52 -53 90 -116 220 -144 301 -15 42 -30
77 -32 77 -3 0 -2 -8 2 -17z"/>
<path d="M1092 1301 c-17 -10 293 -322 431 -434 128 -104 314 -215 396 -237
36 -10 115 -36 175 -59 140 -55 260 -81 361 -79 44 0 69 3 55 5 -210 36 -338
75 -514 156 -93 43 -112 48 -129 38 -17 -11 -27 -8 -71 22 -28 18 -89 58 -136
87 -200 124 -381 290 -550 502 -3 4 -11 3 -18 -1z"/>
<path d="M1510 1268 c24 -27 45 -48 47 -48 8 0 0 9 -44 50 l-48 45 45 -47z"/>
<path d="M0 1019 c0 -25 17 -66 58 -140 173 -307 343 -536 570 -767 92 -92
116 -112 141 -112 28 0 22 7 -86 113 -237 231 -442 504 -618 825 -59 107 -65
114 -65 81z"/>
<path d="M1800 1006 c0 -3 9 -10 20 -16 11 -6 20 -8 20 -6 0 3 -9 10 -20 16
-11 6 -20 8 -20 6z"/>
<path d="M1970 975 c0 -7 101 -57 106 -53 2 2 -21 16 -51 31 -30 15 -55 25
-55 22z"/>
<path d="M2100 910 c8 -5 22 -9 30 -9 10 0 8 3 -5 9 -27 12 -43 12 -25 0z"/>
<path d="M5077 853 c-65 -118 -196 -283 -331 -419 -171 -170 -324 -292 -502
-399 l-58 -35 70 0 c75 0 68 -3 208 94 31 21 79 60 107 87 28 27 56 49 63 49
14 0 194 175 273 266 28 32 86 111 129 174 70 103 78 121 82 172 2 31 2 62 0
68 -2 7 -21 -19 -41 -57z"/>
<path d="M2328 833 c7 -3 16 -2 19 1 4 3 -2 6 -13 5 -11 0 -14 -3 -6 -6z"/>
<path d="M2360 827 c6 -7 161 -32 250 -41 43 -4 51 -3 36 6 -11 6 -55 14 -99
19 -44 4 -106 11 -136 15 -31 3 -54 4 -51 1z"/>
<path d="M1155 712 c44 -45 81 -82 83 -82 8 0 -39 51 -98 105 -59 54 -58 52
15 -23z"/>
<path d="M0 680 c0 -41 7 -62 41 -117 112 -183 223 -332 357 -480 70 -78 77
-83 114 -83 l40 0 -73 81 c-184 202 -333 403 -433 582 -21 37 -40 67 -42 67
-2 0 -4 -22 -4 -50z"/>
<path d="M5031 358 c-88 -99 -254 -255 -334 -316 l-48 -37 36 -3 c49 -4 92 25
218 147 143 138 219 234 215 272 -3 29 -5 27 -87 -63z"/>
<path d="M1117 324 c92 -103 210 -211 256 -235 21 -11 36 -23 33 -27 -3 -4 5
-9 16 -9 12 -1 33 -13 47 -27 24 -23 35 -26 101 -26 l75 0 -100 56 c-54 31
-139 82 -187 115 -89 59 -272 201 -283 219 -3 5 -11 10 -16 10 -6 0 20 -34 58
-76z"/>
<path d="M0 357 c0 -34 80 -162 185 -295 42 -55 52 -62 83 -62 40 0 48 -13
-77 141 -46 57 -106 137 -133 177 -27 39 -51 72 -53 72 -3 0 -5 -15 -5 -33z"/>
<path d="M5112 233 c-1 -6 -50 -61 -108 -122 l-106 -111 39 0 c35 0 46 7 111
73 l73 74 -4 49 c-2 27 -4 44 -5 37z"/>
<path d="M3425 131 c-15 -15 -155 -60 -300 -97 l-130 -33 122 0 c106 -1 133 2
200 25 82 27 134 69 123 98 -3 11 -9 13 -15 7z"/>
<path d="M0 30 c0 -25 4 -30 25 -30 l26 0 -23 30 c-12 17 -23 30 -25 30 -2 0
-3 -13 -3 -30z"/>
</g>
</svg>